HIERARCHY
ROOT Hips
{
  OFFSET 5.80788e-005 67.184 3.4734
  CHANNELS 6 Xposition Yposition Zposition Zrotation Xrotation Yrotation
  JOINT Chest
  {
    OFFSET 0 8.7983 -4.7612
    CHANNELS 6 Xposition Yposition Zposition Zrotation Xrotation Yrotation
    JOINT Chest2
    {
      OFFSET 0 8.0291 0.4195
      CHANNELS 6 Xposition Yposition Zposition Zrotation Xrotation Yrotation
      JOINT Chest3
      {
        OFFSET 0 9.9351 -2.2114
        CHANNELS 6 Xposition Yposition Zposition Zrotation Xrotation Yrotation
        JOINT Neck
        {
          OFFSET 0 22.3885 -0.4656
          CHANNELS 6 Xposition Yposition Zposition Zrotation Xrotation Yrotation
          JOINT Head
          {
            OFFSET -0.0001 12.643 3.4389
            CHANNELS 6 Xposition Yposition Zposition Zrotation Xrotation Yrotation
            End Site
            {
              OFFSET 0.0001 17.6655 0.5274
            }
          }
        }
        JOINT LeftCollar
        {
          OFFSET 2.2603 21.606 7.4023
          CHANNELS 6 Xposition Yposition Zposition Zrotation Xrotation Yrotation
          JOINT LeftShoulder
          {
            OFFSET 13.5163 -1.1332 -5.0146
            CHANNELS 6 Xposition Yposition Zposition Zrotation Xrotation Yrotation
            JOINT LeftElbow
            {
              OFFSET -0.0995 -28.05 -0.2431
              CHANNELS 6 Xposition Yposition Zposition Zrotation Xrotation Yrotation
              JOINT LeftWrist
              {
                OFFSET 0.0679 -23.3996 -0.1402
                CHANNELS 6 Xposition Yposition Zposition Zrotation Xrotation Yrotation
                JOINT LeftFinger1
                {
                  OFFSET 0.7932 -9.069 2.5189
                  CHANNELS 6 Xposition Yposition Zposition Zrotation Xrotation Yrotation
                  JOINT LeftFinger11
                  {
                    OFFSET -0.8272 -3.3923 0.5977
                    CHANNELS 6 Xposition Yposition Zposition Zrotation Xrotation Yrotation
                    JOINT LeftFinger12
                    {
                      OFFSET -0.5649 -2.3158 0.4082
                      CHANNELS 6 Xposition Yposition Zposition Zrotation Xrotation Yrotation
                      End Site
                      {
                        OFFSET -0.4919 -1.6479 0.2673
                      }
                    }
                  }
                }
                JOINT LeftFinger2
                {
                  OFFSET 0.9159 -9.2044 0.2193
                  CHANNELS 6 Xposition Yposition Zposition Zrotation Xrotation Yrotation
                  JOINT LeftFinger21
                  {
                    OFFSET 0.0117 -4.1944 -0.0248
                    CHANNELS 6 Xposition Yposition Zposition Zrotation Xrotation Yrotation
                    JOINT LeftFinger22
                    {
                      OFFSET 0.0071 -2.3249 -0.0142
                      CHANNELS 6 Xposition Yposition Zposition Zrotation Xrotation Yrotation
                      End Site
                      {
                        OFFSET -0.1475 -2.0882 0.0028
                      }
                    }
                  }
                }
                JOINT LeftFinger3
                {
                  OFFSET 0.6113 -8.7231 -2.0637
                  CHANNELS 6 Xposition Yposition Zposition Zrotation Xrotation Yrotation
                  JOINT LeftFinger31
                  {
                    OFFSET -0.1927 -3.8059 -0.2383
                    CHANNELS 6 Xposition Yposition Zposition Zrotation Xrotation Yrotation
                    JOINT LeftFinger32
                    {
                      OFFSET -0.1091 -2.1688 -0.1362
                      CHANNELS 6 Xposition Yposition Zposition Zrotation Xrotation Yrotation
                      End Site
                      {
                        OFFSET -0.2358 -1.9176 -0.0906
                      }
                    }
                  }
                }
                JOINT LeftFinger4
                {
                  OFFSET -0.6151 -8.0947 -3.5641
                  CHANNELS 6 Xposition Yposition Zposition Zrotation Xrotation Yrotation
                  JOINT LeftFinger41
                  {
                    OFFSET -0.4882 -2.341 -0.6462
                    CHANNELS 6 Xposition Yposition Zposition Zrotation Xrotation Yrotation
                    JOINT LeftFinger42
                    {
                      OFFSET -0.3575 -1.7167 -0.4742
                      CHANNELS 6 Xposition Yposition Zposition Zrotation Xrotation Yrotation
                      End Site
                      {
                        OFFSET -0.4187 -1.5237 -0.3496
                      }
                    }
                  }
                }
                JOINT LeftFinger0
                {
                  OFFSET -1.42 -1.8761 1.4223
                  CHANNELS 6 Xposition Yposition Zposition Zrotation Xrotation Yrotation
                  JOINT LeftFinger01
                  {
                    OFFSET -1.1471 -3.4929 2.6334
                    CHANNELS 6 Xposition Yposition Zposition Zrotation Xrotation Yrotation
                    JOINT LeftFinger02
                    {
                      OFFSET -0.823 -2.3 1.6571
                      CHANNELS 6 Xposition Yposition Zposition Zrotation Xrotation Yrotation
                      End Site
                      {
                        OFFSET -0.5822 -1.6914 1.1582
                      }
                    }
                  }
                }
              }
            }
          }
        }
        JOINT RightCollar
        {
          OFFSET -2.2603 21.606 7.4023
          CHANNELS 6 Xposition Yposition Zposition Zrotation Xrotation Yrotation
          JOINT RightShoulder
          {
            OFFSET -13.5187 -1.1334 -5.0155
            CHANNELS 6 Xposition Yposition Zposition Zrotation Xrotation Yrotation
            JOINT RightElbow
            {
              OFFSET 0.0994 -28.0499 -0.2431
              CHANNELS 6 Xposition Yposition Zposition Zrotation Xrotation Yrotation
              JOINT RightWrist
              {
                OFFSET -0.0679 -23.3996 -0.1402
                CHANNELS 6 Xposition Yposition Zposition Zrotation Xrotation Yrotation
                JOINT RightFinger1
                {
                  OFFSET -0.7932 -9.0691 2.5189
                  CHANNELS 6 Xposition Yposition Zposition Zrotation Xrotation Yrotation
                  JOINT RightFinger11
                  {
                    OFFSET 0.8272 -3.3923 0.5977
                    CHANNELS 6 Xposition Yposition Zposition Zrotation Xrotation Yrotation
                    JOINT RightFinger12
                    {
                      OFFSET 0.565 -2.3158 0.4082
                      CHANNELS 6 Xposition Yposition Zposition Zrotation Xrotation Yrotation
                      End Site
                      {
                        OFFSET 0.4919 -1.6479 0.2673
                      }
                    }
                  }
                }
                JOINT RightFinger2
                {
                  OFFSET -0.916 -9.2044 0.2193
                  CHANNELS 6 Xposition Yposition Zposition Zrotation Xrotation Yrotation
                  JOINT RightFinger21
                  {
                    OFFSET -0.0117 -4.1944 -0.0248
                    CHANNELS 6 Xposition Yposition Zposition Zrotation Xrotation Yrotation
                    JOINT RightFinger22
                    {
                      OFFSET -0.0071 -2.3249 -0.0142
                      CHANNELS 6 Xposition Yposition Zposition Zrotation Xrotation Yrotation
                      End Site
                      {
                        OFFSET 0.1475 -2.0882 0.0028
                      }
                    }
                  }
                }
                JOINT RightFinger3
                {
                  OFFSET -0.6113 -8.7231 -2.0637
                  CHANNELS 6 Xposition Yposition Zposition Zrotation Xrotation Yrotation
                  JOINT RightFinger31
                  {
                    OFFSET 0.1927 -3.8059 -0.2383
                    CHANNELS 6 Xposition Yposition Zposition Zrotation Xrotation Yrotation
                    JOINT RightFinger32
                    {
                      OFFSET 0.1091 -2.1688 -0.1362
                      CHANNELS 6 Xposition Yposition Zposition Zrotation Xrotation Yrotation
                      End Site
                      {
                        OFFSET 0.2358 -1.9176 -0.0906
                      }
                    }
                  }
                }
                JOINT RightFinger4
                {
                  OFFSET 0.6151 -8.0947 -3.564
                  CHANNELS 6 Xposition Yposition Zposition Zrotation Xrotation Yrotation
                  JOINT RightFinger41
                  {
                    OFFSET 0.4882 -2.341 -0.6462
                    CHANNELS 6 Xposition Yposition Zposition Zrotation Xrotation Yrotation
                    JOINT RightFinger42
                    {
                      OFFSET 0.3574 -1.7166 -0.4742
                      CHANNELS 6 Xposition Yposition Zposition Zrotation Xrotation Yrotation
                      End Site
                      {
                        OFFSET 0.4187 -1.5237 -0.3496
                      }
                    }
                  }
                }
                JOINT RightFinger0
                {
                  OFFSET 1.4199 -1.8761 1.4221
                  CHANNELS 6 Xposition Yposition Zposition Zrotation Xrotation Yrotation
                  JOINT RightFinger01
                  {
                    OFFSET 1.1472 -3.4929 2.6336
                    CHANNELS 6 Xposition Yposition Zposition Zrotation Xrotation Yrotation
                    JOINT RightFinger02
                    {
                      OFFSET 0.8229 -2.3 1.6571
                      CHANNELS 6 Xposition Yposition Zposition Zrotation Xrotation Yrotation
                      End Site
                      {
                        OFFSET 0.5822 -1.6914 1.1582
                      }
                    }
                  }
                }
              }
            }
          }
        }
      }
    }
  }
  JOINT RightHip
  {
    OFFSET -9.412 3.9771 -0.7758
    CHANNELS 6 Xposition Yposition Zposition Zrotation Xrotation Yrotation
    JOINT RightKnee
    {
      OFFSET -0.7531 -40.938 0
      CHANNELS 6 Xposition Yposition Zposition Zrotation Xrotation Yrotation
      JOINT RightAnkle
      {
        OFFSET 0 -40.1986 0
        CHANNELS 6 Xposition Yposition Zposition Zrotation Xrotation Yrotation
        JOINT RightToe
        {
          OFFSET 0 -4.4182 9.239
          CHANNELS 6 Xposition Yposition Zposition Zrotation Xrotation Yrotation
          End Site
          {
            OFFSET 0 0 6.1981
          }
        }
      }
    }
  }
  JOINT LeftHip
  {
    OFFSET 9.4119 3.9773 -0.7758
    CHANNELS 6 Xposition Yposition Zposition Zrotation Xrotation Yrotation
    JOINT LeftKnee
    {
      OFFSET 0.7532 -40.9383 0
      CHANNELS 6 Xposition Yposition Zposition Zrotation Xrotation Yrotation
      JOINT LeftAnkle
      {
        OFFSET 0 -40.1986 0
        CHANNELS 6 Xposition Yposition Zposition Zrotation Xrotation Yrotation
        JOINT LeftToe
        {
          OFFSET 0 -4.4182 9.239
          CHANNELS 6 Xposition Yposition Zposition Zrotation Xrotation Yrotation
          End Site
          {
            OFFSET 0 0 6.1981
          }
        }
      }
    }
  }
}
MOTION
Frames:	4
Frame Time:	0.0333333
-17.1946 3.0743 -1.11654 -179.933 -89.9981 -179.933 0 8.7983 -4.7612 -5.32871 13.3528 -4.65222 -3.55271e-015 8.0291 0.4195 -9.92269 27.0539 -8.32997 0 9.9351 -2.2114 -9.92265 27.0538 -8.32994 0 22.3885 -0.4656 1.95891 -6.68102 -16.0964 -0.0001 12.643 3.4389 10.9396 -30.676 34.9985 2.2603 21.606 7.4023 0.00670789 -3.75822 -48.9738 13.5163 -1.1332 -5.0146 47.1048 -8.76702 96.1494 -0.0995 -28.05 -0.2431 -81.4024 -20.072 -75.9558 0.0679 -23.3996 -0.1402 46.849 -25.6752 5.55801 0.7932 -9.069 2.5189 4.41391e-032 7.95139e-016 -3.18055e-015 -0.8272 -3.3923 0.5977 -3.97569e-016 1.59028e-015 -3.18055e-015 -0.5649 -2.3158 0.4082 -3.97569e-016 1.59028e-015 -3.18055e-015 0.9159 -9.2044 0.2193 4.41391e-032 7.95139e-016 -3.18055e-015 0.0117 -4.1944 -0.0248 -0.0128059 0.00232051 8.61626e-005 0.0071 -2.3249 -0.0142 8.82781e-032 1.59028e-015 -3.18055e-015 0.6113 -8.7231 -2.0637 4.41391e-032 7.95139e-016 -3.18055e-015 -0.1927 -3.8059 -0.2383 -0.0159922 0.00298523 0.000857752 -0.1091 -2.1688 -0.1362 7.95139e-016 0 -0 -0.6151 -8.0947 -3.5641 4.41391e-032 7.95139e-016 -3.18055e-015 -0.4882 -2.341 -0.6462 -0.0125729 0.00311538 0.00282573 -0.3575 -1.7167 -0.4742 3.97569e-016 3.18055e-015 -9.54166e-015 -1.42 -1.8761 1.4223 4.41391e-032 7.95139e-016 -3.18055e-015 -1.1471 -3.4929 2.6334 -3.97569e-016 1.59028e-015 -3.18055e-015 -0.823 -2.3 1.6571 -3.97569e-016 1.59028e-015 -3.18055e-015 -2.2603 21.606 7.4023 18.3856 -32.5103 -28.6104 -13.5187 -1.1334 -5.0155 -60.6978 23.8169 40.58 0.0994 -28.0499 -0.2431 -81.3965 -52.0749 -11.8262 -0.0679 -23.3996 -0.1402 -4.28456 -9.30088 6.50019 -0.7932 -9.0691 2.5189 -1.39149e-015 -1.59028e-015 -7.95139e-016 0.8272 -3.3923 0.5977 1.06109e-005 2.17466e-006 -1.907e-006 0.565 -2.3158 0.4082 -3.97569e-016 0 7.95139e-016 -0.916 -9.2044 0.2193 -1.39149e-015 -1.59028e-015 -7.95139e-016 -0.0117 -4.1944 -0.0248 0.0129482 0.00231536 -8.87045e-005 -0.0071 -2.3249 -0.0142 5.96354e-016 1.59028e-015 -0 -0.6113 -8.7231 -2.0637 -1.39149e-015 -1.59028e-015 -7.95139e-016 0.1927 -3.8059 -0.2383 0.0163345 0.00303549 -0.000873268 0.1091 -2.1688 -0.1362 -2.98177e-015 1.59028e-015 -0 0.6151 -8.0947 -3.564 -1.39149e-015 -1.59028e-015 -7.95139e-016 0.4882 -2.341 -0.6462 0.0146049 0.00368074 -0.00326632 0.3574 -1.7166 -0.4742 -2.64834e-031 6.36111e-015 2.38542e-015 1.4199 -1.8761 1.4221 -1.39149e-015 -1.59028e-015 -7.95139e-016 1.1472 -3.4929 2.6336 1.06109e-005 2.17466e-006 -1.907e-006 0.8229 -2.3 1.6571 -3.97569e-016 0 7.95139e-016 -9.412 3.9771 -0.7758 -79.3021 -20.0875 -64.0763 -0.7531 -40.938 2.66454e-015 -160.945 68.6399 155.564 2.66454e-015 -40.1986 0 -52.9188 5.11678 64.8463 -7.10543e-015 -4.4182 9.239 -2.08078e-018 -6.21202e-018 -6.21202e-018 9.4119 3.9773 -0.7758 16.583 -57.8261 41.8202 0.7532 -40.9383 8.88178e-016 47.686 77.1327 -45.9824 0 -40.1986 0 6.08233 18.5605 -12.6058 -1.77636e-015 -4.4182 9.239 -2.54157e-006 -3.14217e-006 1.74707e-006 
-17.1946 3.07431 -1.11654 -179.994 -89.9981 -179.994 3.55271e-015 8.7983 -4.7612 -5.32611 13.3201 -4.65082 -3.55271e-015 8.0291 0.4195 -9.91865 26.9884 -8.32961 -3.55271e-015 9.9351 -2.2114 -9.9186 26.9882 -8.32958 0 22.3885 -0.4656 1.95989 -6.92513 -16.088 -0.0001 12.643 3.4389 10.8568 -29.9383 34.8347 2.2603 21.606 7.4023 -0.0401373 -3.58459 -48.9696 13.5163 -1.1332 -5.0146 47.1048 -8.76696 96.1494 -0.0995 -28.05 -0.2431 -81.4025 -20.072 -75.9559 0.0679 -23.3996 -0.1402 46.849 -25.6751 5.55803 0.7932 -9.069 2.5189 3.97569e-016 -7.95139e-016 -0 -0.8272 -3.3923 0.5977 3.97569e-016 -7.95139e-016 -3.18055e-015 -0.5649 -2.3158 0.4082 -4.41391e-032 7.95139e-016 3.18055e-015 0.9159 -9.2044 0.2193 3.97569e-016 -7.95139e-016 -0 0.0117 -4.1944 -0.0248 -0.0128389 0.00233014 8.11583e-005 0.0071 -2.3249 -0.0142 -7.95139e-016 1.59028e-015 6.36111e-015 0.6113 -8.7231 -2.0637 3.97569e-016 -7.95139e-016 -0 -0.1927 -3.8059 -0.2383 -0.0160937 0.00300197 0.000857922 -0.1091 -2.1688 -0.1362 -4.41391e-032 7.95139e-016 3.18055e-015 -0.6151 -8.0947 -3.5641 3.97569e-016 -7.95139e-016 -0 -0.4882 -2.341 -0.6462 -0.0126629 0.00314024 0.00284122 -0.3575 -1.7167 -0.4742 3.97569e-016 -3.97569e-015 -3.18055e-015 -1.42 -1.8761 1.4223 3.97569e-016 -7.95139e-016 -0 -1.1471 -3.4929 2.6334 3.97569e-016 -7.95139e-016 -3.18055e-015 -0.823 -2.3 1.6571 -4.41391e-032 7.95139e-016 3.18055e-015 -2.2603 21.606 7.4023 18.3856 -32.5102 -28.6104 -13.5187 -1.1334 -5.0155 -60.6978 23.8169 40.58 0.0994 -28.0499 -0.2431 -81.3965 -52.0748 -11.8263 -0.0679 -23.3996 -0.1402 -4.18908 -9.34046 6.59846 -0.7932 -9.0691 2.5189 7.95139e-016 3.18055e-015 -0 0.8272 -3.3923 0.5977 7.95139e-016 1.59028e-015 -7.95139e-016 0.565 -2.3158 0.4082 -1.98785e-016 1.59028e-015 -7.95139e-016 -0.916 -9.2044 0.2193 7.95139e-016 3.18055e-015 -0 -0.0117 -4.1944 -0.0248 0.0129647 0.0023183 -8.47651e-005 -0.0071 -2.3249 -0.0142 1.19271e-015 -1.59028e-015 -1.59028e-015 -0.6113 -8.7231 -2.0637 7.95139e-016 3.18055e-015 -0 0.1927 -3.8059 -0.2383 0.0163127 0.00303463 -0.000870027 0.1091 -2.1688 -0.1362 5.96354e-016 0 -7.95139e-016 0.6151 -8.0947 -3.564 7.95139e-016 3.18055e-015 -0 0.4882 -2.341 -0.6462 0.0145621 0.00367122 -0.00325717 0.3574 -1.7166 -0.4742 9.93923e-016 0 7.95139e-016 1.4199 -1.8761 1.4221 7.95139e-016 3.18055e-015 -0 1.1472 -3.4929 2.6336 7.95139e-016 1.59028e-015 -7.95139e-016 0.8229 -2.3 1.6571 -1.98785e-016 1.59028e-015 -7.95139e-016 -9.412 3.9771 -0.7758 -79.2699 -20.1307 -64.0207 -0.7531 -40.938 0 -160.935 68.6387 155.565 4.44089e-015 -40.1986 0 -52.8517 5.15414 64.8221 -7.10543e-015 -4.4182 9.239 -4.75153e-018 6.21202e-018 -9.31803e-018 9.4119 3.9773 -0.7758 16.5827 -57.8262 41.82 0.7532 -40.9383 -4.88498e-015 47.6861 77.1326 -45.9823 0 -40.1986 -7.10543e-015 6.08235 18.5605 -12.6058 -3.55271e-015 -4.4182 9.239 -2.85589e-006 -3.37471e-007 9.2467e-007 
-17.1946 3.07432 -1.11654 -179.999 -89.9981 -179.999 0 8.7983 -4.7612 -5.32369 13.2896 -4.64951 0 8.0291 0.4195 -9.91488 26.9273 -8.32926 0 9.9351 -2.2114 -9.91484 26.9272 -8.32923 0 22.3885 -0.4656 1.96085 -7.15286 -16.0801 -0.0001 12.643 3.4389 10.7819 -29.2488 34.6831 2.2603 21.606 7.4023 -0.0837653 -3.42286 -48.9655 13.5163 -1.1332 -5.0146 47.1048 -8.76696 96.1494 -0.0995 -28.05 -0.2431 -81.4024 -20.072 -75.9558 0.0679 -23.3996 -0.1402 46.849 -25.6752 5.55803 0.7932 -9.069 2.5189 4.04715e-007 1.20565e-006 -1.57231e-006 -0.8272 -3.3923 0.5977 1.19271e-015 0 -3.18055e-015 -0.5649 -2.3158 0.4082 1.19271e-015 -7.95139e-016 -0 0.9159 -9.2044 0.2193 4.04715e-007 1.20565e-006 -1.57231e-006 0.0117 -4.1944 -0.0248 -0.0128092 0.00232149 8.65554e-005 0.0071 -2.3249 -0.0142 -7.95139e-016 0 3.18055e-015 0.6113 -8.7231 -2.0637 4.04715e-007 1.20565e-006 -1.57231e-006 -0.1927 -3.8059 -0.2383 -0.0160528 0.0029973 0.000854928 -0.1091 -2.1688 -0.1362 7.95139e-016 -7.95139e-016 -3.18055e-015 -0.6151 -8.0947 -3.5641 4.04715e-007 1.20565e-006 -1.57231e-006 -0.4882 -2.341 -0.6462 -0.0126169 0.00312848 0.00283705 -0.3575 -1.7167 -0.4742 7.95139e-016 -1.59028e-015 -6.36111e-015 -1.42 -1.8761 1.4223 4.04715e-007 1.20565e-006 -1.57231e-006 -1.1471 -3.4929 2.6334 1.19271e-015 0 -3.18055e-015 -0.823 -2.3 1.6571 1.19271e-015 -7.95139e-016 -0 -2.2603 21.606 7.4023 18.3856 -32.5102 -28.6104 -13.5187 -1.1334 -5.0155 -60.6978 23.8169 40.58 0.0994 -28.0499 -0.2431 -81.3965 -52.0749 -11.8263 -0.0679 -23.3996 -0.1402 -4.10018 -9.37713 6.69003 -0.7932 -9.0691 2.5189 5.96354e-016 1.59028e-015 7.95139e-016 0.8272 -3.3923 0.5977 -1.98785e-016 1.59028e-015 -0 0.565 -2.3158 0.4082 9.93923e-016 1.59028e-015 7.95139e-016 -0.916 -9.2044 0.2193 5.96354e-016 1.59028e-015 7.95139e-016 -0.0117 -4.1944 -0.0248 0.0129535 0.00231884 -8.6053e-005 -0.0071 -2.3249 -0.0142 -1.98785e-016 -3.18055e-015 -0 -0.6113 -8.7231 -2.0637 5.96354e-016 1.59028e-015 7.95139e-016 0.1927 -3.8059 -0.2383 0.016349 0.00304116 -0.000873083 0.1091 -2.1688 -0.1362 -5.96354e-016 -3.18055e-015 -0 0.6151 -8.0947 -3.564 5.96354e-016 1.59028e-015 7.95139e-016 0.4882 -2.341 -0.6462 0.0146008 0.00368212 -0.00326471 0.3574 -1.7166 -0.4742 -3.97569e-016 4.77083e-015 7.95139e-016 1.4199 -1.8761 1.4221 5.96354e-016 1.59028e-015 7.95139e-016 1.1472 -3.4929 2.6336 -1.98785e-016 1.59028e-015 -0 0.8229 -2.3 1.6571 9.93923e-016 1.59028e-015 7.95139e-016 -9.412 3.9771 -0.7758 -79.2293 -20.1866 -63.9654 -0.7531 -40.938 8.88178e-016 -160.942 68.6394 155.564 0 -40.1986 7.10543e-015 -52.7892 5.18889 64.7994 7.10543e-015 -4.4182 9.239 3.67322e-018 1.2424e-017 -3.10601e-018 9.4119 3.9773 -0.7758 16.5824 -57.8262 41.8197 0.7532 -40.9383 0 47.6858 77.1326 -45.9819 -1.77636e-015 -40.1986 0 6.08235 18.5605 -12.6058 -1.77636e-015 -4.4182 9.239 1.59028e-015 -9.54166e-015 3.18055e-015 
-17.1946 3.07432 -1.11654 -179.979 -89.9981 -179.979 0 8.7983 -4.7612 -5.32126 13.2592 -4.64819 3.55272e-015 8.0291 0.4195 -9.9111 26.8663 -8.32889 0 9.9351 -2.2114 -9.91106 26.8661 -8.32887 0 22.3885 -0.4656 1.96183 -7.38061 -16.0722 -0.0001 12.643 3.4389 10.7095 -28.5581 34.5333 2.2603 21.606 7.4023 -0.127416 -3.26113 -48.9613 13.5163 -1.1332 -5.0146 47.1048 -8.76698 96.1495 -0.0995 -28.05 -0.2431 -81.4025 -20.072 -75.9559 0.0679 -23.3996 -0.1402 46.849 -25.6751 5.55802 0.793201 -9.069 2.5189 3.97569e-016 7.95139e-016 3.18055e-015 -0.827201 -3.3923 0.5977 -3.97569e-016 0 3.18055e-015 -0.5649 -2.3158 0.4082 1.06014e-007 4.11661e-007 1.21193e-008 0.915901 -9.2044 0.2193 3.97569e-016 7.95139e-016 3.18055e-015 0.0117 -4.1944 -0.0248 -0.0128089 0.00232344 8.55964e-005 0.0071 -2.3249 -0.0142 1.06014e-007 4.11666e-007 1.21236e-008 0.6113 -8.7231 -2.0637 3.97569e-016 7.95139e-016 3.18055e-015 -0.1927 -3.8059 -0.2383 -0.0160157 0.00299208 0.000855462 -0.1091 -2.1688 -0.1362 1.06013e-007 4.11667e-007 1.21248e-008 -0.6151 -8.0947 -3.5641 3.97569e-016 7.95139e-016 3.18055e-015 -0.4882 -2.341 -0.6462 -0.0126539 0.00313772 0.00284468 -0.3575 -1.7167 -0.4742 3.97569e-016 0 3.18055e-015 -1.42 -1.8761 1.4223 3.97569e-016 7.95139e-016 3.18055e-015 -1.1471 -3.4929 2.6334 -3.97569e-016 0 3.18055e-015 -0.823001 -2.3 1.6571 1.06014e-007 4.11661e-007 1.21193e-008 -2.2603 21.606 7.4023 18.3855 -32.5102 -28.6105 -13.5187 -1.1334 -5.0155 -60.6978 23.8169 40.58 0.0994 -28.0499 -0.2431 -81.3966 -52.0748 -11.8263 -0.0679 -23.3996 -0.1402 -4.01112 -9.4137 6.7817 -0.7932 -9.0691 2.5189 1.19271e-014 1.59028e-015 -3.18055e-015 0.8272 -3.3923 0.5977 1.39149e-014 -1.59028e-015 -4.77083e-015 0.565 -2.3158 0.4082 1.19271e-014 -1.59028e-015 -4.77083e-015 -0.916 -9.2044 0.2193 1.19271e-014 1.59028e-015 -3.18055e-015 -0.0117 -4.1944 -0.0248 0.012964 0.0023172 -8.63034e-005 -0.0071 -2.3249 -0.0142 7.57441e-006 2.03126e-006 1.09176e-007 -0.6113 -8.7231 -2.0637 1.19271e-014 1.59028e-015 -3.18055e-015 0.1927 -3.8059 -0.2383 0.0163428 0.00303579 -0.000874534 0.1091 -2.1688 -0.1362 5.96354e-016 -1.59028e-015 -0 0.6151 -8.0947 -3.564 1.19271e-014 1.59028e-015 -3.18055e-015 0.4882 -2.341 -0.6462 0.0145639 0.00367407 -0.00325974 0.3574 -1.7166 -0.4742 2.38542e-015 -3.18055e-015 7.95139e-016 1.4199 -1.8761 1.4221 1.19271e-014 1.59028e-015 -3.18055e-015 1.1472 -3.4929 2.6336 1.39149e-014 -1.59028e-015 -4.77083e-015 0.8229 -2.3 1.6571 1.19271e-014 -1.59028e-015 -4.77083e-015 -9.412 3.9771 -0.7758 -79.1937 -20.2347 -63.9118 -0.7531 -40.938 -8.88178e-016 -160.94 68.6392 155.564 0 -40.1986 -7.10543e-015 -52.7267 5.22356 64.7767 -1.42109e-014 -4.4182 9.239 1.18599e-018 -6.21202e-018 -0 9.4119 3.9773 -0.7758 16.5824 -57.8262 41.8198 0.7532 -40.9383 -3.9968e-015 47.6859 77.1326 -45.982 -1.77636e-015 -40.1986 0 6.08236 18.5605 -12.6058 -1.77636e-015 -4.4182 9.239 -5.26176e-007 -8.77271e-008 6.64573e-007 
